<?xml version="1.0" encoding="UTF-8"?>
<svg version="1.1" xmlns="http://www.w3.org/2000/svg" width="2143" height="1500">
<path d="M0 0 C4.04731139 0.08197898 8.09465676 0.1621979 12.14200592 0.24228668 C102.43465005 2.0328525 192.70883341 4.65811165 282.93185806 8.67362213 C285.04031415 8.76729357 287.14881996 8.85978089 289.25733185 8.95218658 C292.99663062 9.11698154 296.73545311 9.2910952 300.47422028 9.46756744 C301.55020477 9.51531815 302.62618927 9.56306885 303.73477936 9.61226654 C305.1721344 9.68312218 305.1721344 9.68312218 306.63852692 9.75540924 C307.46494186 9.79441849 308.29135681 9.83342773 309.14281464 9.87361908 C311.00156403 10.08084869 311.00156403 10.08084869 312.00156403 11.08084869 C314.26140168 11.29836984 316.52771061 11.44871723 318.79453278 11.57401276 C319.86911051 11.63550208 319.86911051 11.63550208 320.96539688 11.6982336 C322.53854235 11.78768318 324.11181213 11.87496528 325.68518066 11.96040154 C328.22443302 12.0983958 330.76331017 12.24203554 333.30216217 12.3871994 C336.95613056 12.59575335 340.61020808 12.8022173 344.26438141 13.00714874 C373.27777613 14.63883004 402.27933674 16.38858077 431.25156403 18.64334869 C431.91316906 18.69476391 432.57477409 18.74617912 433.25642776 18.79915237 C455.87132426 20.56158296 478.45159912 22.62255848 501.00156403 25.08084869 C501.00156403 25.74084869 501.00156403 26.40084869 501.00156403 27.08084869 C501.60932678 27.06766098 502.21708954 27.05447327 502.84326935 27.04088593 C508.94267181 26.96635125 514.79902285 27.39202262 520.83750153 28.21756744 C521.74724731 28.33725388 522.6569931 28.45694031 523.59430695 28.5802536 C526.52281556 28.96860019 529.44972325 29.36763956 532.37656403 29.76834869 C533.37490265 29.90301544 534.37324127 30.03768219 535.40183258 30.17642975 C551.68375253 32.37612451 567.88987442 34.83922977 584.00156403 38.08084869 C584.80658356 38.23875885 585.61160309 38.39666901 586.44101715 38.55936432 C590.79345392 39.45948528 594.81431947 40.68055872 598.94687653 42.30887604 C602.72708289 43.72914844 606.62353497 44.77547456 610.50156403 45.89334869 C619.51137239 48.53566446 628.26837622 51.64124121 637.00156403 55.08084869 C637.00156403 55.74084869 637.00156403 56.40084869 637.00156403 57.08084869 C637.65382965 57.16721588 638.30609528 57.25358307 638.97812653 57.34256744 C643.05223112 58.33740694 646.60882023 60.07863992 650.37656403 61.89334869 C651.1061734 62.23688385 651.83578278 62.58041901 652.58750153 62.93436432 C665.50105601 69.07983266 665.50105601 69.07983266 667.00156403 72.08084869 C668.05343903 72.57584869 669.10531403 73.07084869 670.18906403 73.58084869 C679.50290657 78.0535033 687.85329471 85.03969371 695.91172028 91.43241119 C697.38313695 92.59304266 698.87192092 93.73182403 700.37265778 94.85428619 C704.9083387 98.26535658 708.40654625 101.65621144 712.00156403 106.08084869 C713.27488786 107.22656864 714.56829541 108.35019911 715.87656403 109.45584869 C719.41574197 112.46848227 722.42248209 115.71105379 725.42343903 119.25272369 C727.08391615 121.2293084 727.08391615 121.2293084 729.43906403 123.45584869 C732.5605272 126.65344512 735.26438526 130.09797064 738.02500153 133.60819244 C739.65109928 135.64242146 741.32184707 137.58514004 743.06406403 139.51834869 C746.28624419 143.22341689 748.80960226 147.32280518 751.38828278 151.49100494 C752.68430937 153.57155127 754.02669968 155.57958331 755.43906403 157.58084869 C757.00156403 160.08084869 757.00156403 160.08084869 757.00156403 163.08084869 C757.66156403 163.08084869 758.32156403 163.08084869 759.00156403 163.08084869 C772.76841768 181.97116208 780.99387944 206.53641949 786.86093903 228.93241119 C787.59428132 231.71260778 788.45630252 234.39485171 789.42734528 237.10037994 C791.74733053 243.94426298 793.01533389 251.07144622 794.43906403 258.14334869 C794.6667598 259.26211395 794.6667598 259.26211395 794.89905548 260.40348053 C796.88893791 270.18762525 798.77718241 279.98488122 800.43906403 289.83084869 C800.6026944 290.79256989 800.76632477 291.75429108 800.93491364 292.74515533 C801.66504799 297.24038855 802.19081867 301.50845656 802.00156403 306.08084869 C802.66156403 306.08084869 803.32156403 306.08084869 804.00156403 306.08084869 C807.53173279 330.49311971 810.64753386 354.92650211 813.25156403 379.45584869 C813.37589813 380.62333649 813.50023224 381.79082428 813.62833405 382.99369049 C814.67443111 392.85584996 815.7162434 402.71754316 816.58164215 412.59745026 C816.67161469 413.62399719 816.76158722 414.65054413 816.85428619 415.70819855 C817.02161185 417.64724621 817.18462281 419.58667251 817.34268951 421.52649689 C817.30977256 425.63794902 817.30977256 425.63794902 819.00156403 429.08084869 C819.22257979 430.76615196 819.37926411 432.45992678 819.51059723 434.15457916 C819.59786072 435.25676788 819.68512421 436.3589566 819.77503204 437.49454498 C819.86654541 438.71669708 819.95805878 439.93884918 820.05234528 441.19803619 C820.15110962 442.47932404 820.24987396 443.76061188 820.35163116 445.08072662 C820.62341275 448.62606588 820.88754627 452.17193502 821.14902115 455.7180481 C821.31434029 457.95959455 821.4809863 460.20103982 821.64771271 462.44248199 C823.36851695 485.66570277 824.82544672 508.89935221 826.06604385 532.1530304 C826.18523703 534.38421101 826.30577676 536.61531554 826.4265213 538.84641266 C827.00452841 549.58888357 827.51368685 560.33394206 828.00156403 571.08084869 C828.04336245 571.99697638 828.08516088 572.91310407 828.12822592 573.8569932 C829.69102008 608.3471423 830.31758629 642.77450002 830.3031466 677.29813552 C830.30190538 683.22398932 830.30823994 689.14983553 830.31358006 695.07568613 C830.32430162 707.55226154 830.32236947 720.02880952 830.31619521 732.50538633 C830.31137433 743.01209844 830.32001608 753.51873175 830.33774567 764.02542877 C830.43748269 824.40701814 830.46557714 884.71722265 827.11463666 945.02641869 C826.90640533 948.80979822 826.70618408 952.59360608 826.50484467 956.37735748 C824.49719418 993.98507585 822.02564525 1031.53994323 819.00156403 1069.08084869 C818.34156403 1069.08084869 817.68156403 1069.08084869 817.00156403 1069.08084869 C817.01688171 1069.78395172 817.0321994 1070.48705475 817.04798126 1071.21146393 C817.14530439 1079.27307697 816.54586467 1087.13308728 815.68125153 1095.14334869 C815.5401729 1096.48739377 815.39949213 1097.83148066 815.25917816 1099.17560577 C814.88454928 1102.74362542 814.5009626 1106.31062399 814.11465073 1109.87739563 C813.87576698 1112.08822518 813.63936735 1114.29930773 813.40363312 1116.51047516 C810.74243739 1141.43432251 807.64658095 1166.28016165 804.00156403 1191.08084869 C803.34156403 1191.08084869 802.68156403 1191.08084869 802.00156403 1191.08084869 C801.97360748 1191.77855377 801.94565094 1192.47625885 801.91684723 1193.19510651 C801.35535405 1202.99374331 799.60800133 1212.45364104 797.72788239 1222.07205963 C797.19304723 1224.81045441 796.66965296 1227.5508439 796.1480484 1230.29178619 C794.53676198 1238.69268977 792.84594189 1247.07238125 790.92734528 1255.40897369 C790.7779097 1256.07088715 790.62847412 1256.7328006 790.47451019 1257.41477203 C789.51918704 1261.45656102 788.24897959 1265.26296625 786.75151825 1269.12464142 C785.59818464 1272.13303784 784.60111568 1275.18969622 783.59140778 1278.24881744 C783.27194939 1279.21287254 783.27194939 1279.21287254 782.94603729 1280.1964035 C782.27555892 1282.21989685 781.60705657 1284.24403348 780.93906403 1286.26834869 C780.05411435 1288.9499276 779.16711986 1291.63081761 778.27890778 1294.31131744 C777.88953033 1295.49105133 777.50015289 1296.67078522 777.09897614 1297.88626862 C776.14656619 1300.65874562 775.12020065 1303.37198397 774.00156403 1306.08084869 C773.34156403 1306.08084869 772.68156403 1306.08084869 772.00156403 1306.08084869 C771.75938141 1306.89114532 771.75938141 1306.89114532 771.51230621 1307.71781158 C769.64574962 1313.66155593 767.19246009 1319.03507616 764.25156403 1324.51834869 C763.80836823 1325.35237213 763.36517242 1326.18639557 762.90854645 1327.04569244 C760.12605682 1332.20460857 757.17119689 1337.09150039 753.66172028 1341.79569244 C751.07127191 1345.36136843 748.84691509 1349.15156059 746.57968903 1352.92850494 C745.00156403 1355.08084869 745.00156403 1355.08084869 742.00156403 1356.08084869 C740.96360615 1357.88971646 740.96360615 1357.88971646 740.00156403 1360.08084869 C735.21770359 1367.3273368 730.1607023 1373.95757149 724.00156403 1380.08084869 C723.21136871 1380.88264557 722.4211734 1381.68444244 721.60703278 1382.51053619 C716.57784412 1387.59659775 711.4519192 1392.45146752 706.00156403 1397.08084869 C705.40601715 1397.60420807 704.81047028 1398.12756744 704.19687653 1398.66678619 C700.86000071 1401.58840635 697.46808839 1404.25069954 693.77500153 1406.70975494 C691.83704088 1408.13558613 691.83704088 1408.13558613 689.80234528 1410.40116119 C686.41674054 1413.64038693 682.79797932 1415.95973528 678.81406403 1418.39334869 C678.09025543 1418.84774323 677.36644684 1419.30213776 676.62070465 1419.77030182 C671.26906873 1423.08084869 671.26906873 1423.08084869 669.00156403 1423.08084869 C669.00156403 1423.74084869 669.00156403 1424.40084869 669.00156403 1425.08084869 C645.09833822 1438.08084869 645.09833822 1438.08084869 641.00156403 1438.08084869 C641.00156403 1438.74084869 641.00156403 1439.40084869 641.00156403 1440.08084869 C607.78203365 1453.08084869 607.78203365 1453.08084869 600.00156403 1453.08084869 C600.00156403 1453.74084869 600.00156403 1454.40084869 600.00156403 1455.08084869 C578.16002075 1460.22165593 556.18348981 1463.67088137 533.97737885 1466.80013275 C532.03039454 1467.07675257 530.08480782 1467.36315223 528.13925934 1467.64969635 C525.3918336 1468.02722155 522.83102641 1468.18591735 520.06406403 1468.14334869 C518.90584137 1468.12981354 518.90584137 1468.12981354 517.72422028 1468.11600494 C517.15574371 1468.10440338 516.58726715 1468.09280182 516.00156403 1468.08084869 C516.00156403 1468.74084869 516.00156403 1469.40084869 516.00156403 1470.08084869 C485.13729154 1473.41757642 454.27214003 1476.45469978 423.31406403 1478.76834869 C422.62601559 1478.81984447 421.93796715 1478.87134026 421.22906876 1478.92439651 C399.76404379 1480.52707884 378.2880756 1481.96139568 356.7977066 1483.18119049 C355.85954102 1483.23593033 354.92137543 1483.29067017 353.95478058 1483.34706879 C352.21959837 1483.44800394 350.48418884 1483.54513139 348.74854279 1483.63774872 C345.06800625 1483.52766521 345.06800625 1483.52766521 342.00156403 1485.08084869 C340.06638034 1485.27358742 338.12443804 1485.39856305 336.18222809 1485.49808502 C334.90787399 1485.56533783 333.6335199 1485.63259064 332.32054901 1485.70188141 C330.88610631 1485.77243064 329.45165254 1485.84275518 328.01718903 1485.91287994 C326.50520843 1485.98988276 324.99324077 1486.06713983 323.4812851 1486.14463043 C319.29487518 1486.35716633 315.10812272 1486.56202495 310.92120743 1486.76433945 C308.23511195 1486.89414373 305.54907725 1487.02515756 302.86304474 1487.15625763 C232.06829358 1490.59751633 161.23016559 1492.95252651 90.37656403 1494.76834869 C89.18110836 1494.79903065 87.98565269 1494.8297126 86.7539711 1494.86132431 C78.67775834 1495.06796801 70.6014239 1495.26929832 62.52500153 1495.46756744 C61.54631292 1495.49187458 60.56762432 1495.51618172 59.55927849 1495.54122543 C54.34939065 1495.66986055 49.13941563 1495.79041786 43.92916107 1495.90326691 C39.77006605 1495.99342307 35.61140391 1496.08958294 31.45284462 1496.20169449 C-14.56365463 1497.436964 -60.5956388 1497.26312099 -106.62478852 1497.28103733 C-113.78363187 1497.28384593 -120.94247396 1497.28809094 -128.10131645 1497.2925415 C-148.15502619 1497.30471856 -168.20873496 1497.31501201 -188.26244831 1497.3184166 C-190.17408516 1497.31874594 -190.17408516 1497.31874594 -192.12434093 1497.31908195 C-193.40088288 1497.31930022 -194.67742482 1497.3195185 -195.99264985 1497.31974339 C-198.57701671 1497.32018677 -201.16138357 1497.32063333 -203.74575043 1497.32108307 C-205.66843013 1497.32141521 -205.66843013 1497.32141521 -207.62995186 1497.32175407 C-226.89675656 1497.3254183 -246.16352863 1497.34025433 -265.43032074 1497.36209869 C-483.3643908 1497.6050123 -483.3643908 1497.6050123 -595.3726728 1494.19410944 C-599.23105334 1494.07358225 -603.08949238 1493.95503674 -606.94795418 1493.83714676 C-667.10589441 1491.9986067 -727.24149065 1489.82595336 -787.35781097 1486.91287994 C-788.45429931 1486.85979298 -788.45429931 1486.85979298 -789.57293892 1486.80563354 C-793.66535787 1486.60659256 -797.75738129 1486.40098525 -801.84918976 1486.18967819 C-804.23112198 1486.06906638 -806.61336243 1485.95574655 -808.99562836 1485.84192657 C-810.65575589 1485.75863837 -812.31587175 1485.67511689 -813.97597504 1485.59134674 C-814.76196957 1485.55524953 -815.5479641 1485.51915232 -816.35777664 1485.48196125 C-821.88485807 1485.1944266 -821.88485807 1485.1944266 -822.99843597 1484.08084869 C-825.45102514 1483.83740807 -827.88305178 1483.65575347 -830.34218597 1483.5117569 C-831.50442688 1483.43802542 -831.50442688 1483.43802542 -832.6901474 1483.36280441 C-834.39088891 1483.25539502 -836.09176428 1483.15009047 -837.7927475 1483.04657936 C-840.53511479 1482.87939386 -843.27705156 1482.70631183 -846.01894379 1482.53151703 C-849.95667221 1482.28064763 -853.89450222 1482.03148113 -857.83242035 1481.78360748 C-888.58953028 1479.84206339 -919.31614395 1477.7380927 -949.99843597 1474.83084869 C-950.99393463 1474.73693533 -950.99393463 1474.73693533 -952.00954437 1474.64112473 C-966.68747171 1473.25530437 -981.35233282 1471.77115623 -995.99843597 1470.08084869 C-995.99843597 1469.42084869 -995.99843597 1468.76084869 -995.99843597 1468.08084869 C-997.95825409 1468.11384064 -997.95825409 1468.11384064 -999.95766449 1468.14749908 C-1004.60304913 1468.14438332 -1009.06045096 1467.68845807 -1013.65077972 1467.01444244 C-1014.45697754 1466.90013382 -1015.26317535 1466.7858252 -1016.09380341 1466.66805267 C-1018.70913574 1466.29314992 -1021.32258719 1465.90682228 -1023.93593597 1465.51834869 C-1024.82940735 1465.38756927 -1025.72287872 1465.25678986 -1026.64342499 1465.12204742 C-1044.58254523 1462.48300698 -1062.29955414 1459.00227305 -1079.99843597 1455.08084869 C-1079.99843597 1454.42084869 -1079.99843597 1453.76084869 -1079.99843597 1453.08084869 C-1081.02259613 1452.95629303 -1082.04675629 1452.83173737 -1083.1019516 1452.70340729 C-1086.70824464 1452.12721385 -1089.8875852 1451.28045771 -1093.34218597 1450.11991119 C-1094.50620941 1449.73061432 -1095.67023285 1449.34131744 -1096.86952972 1448.94022369 C-1098.06706879 1448.53287994 -1099.26460785 1448.12553619 -1100.49843597 1447.70584869 C-1101.69597504 1447.30623932 -1102.8935141 1446.90662994 -1104.12734222 1446.49491119 C-1109.85889799 1444.56535089 -1115.49405199 1442.59020021 -1120.99843597 1440.08084869 C-1120.99843597 1439.42084869 -1120.99843597 1438.76084869 -1120.99843597 1438.08084869 C-1121.71934418 1437.96531647 -1122.44025238 1437.84978424 -1123.18300629 1437.73075104 C-1128.08546327 1436.5990878 -1132.31985975 1434.03667828 -1136.74843597 1431.70584869 C-1137.71910004 1431.21084869 -1138.6897641 1430.71584869 -1139.68984222 1430.20584869 C-1140.61152191 1429.72373932 -1141.5332016 1429.24162994 -1142.48281097 1428.74491119 C-1143.32553558 1428.30614655 -1144.16826019 1427.8673819 -1145.03652191 1427.41532135 C-1146.99843597 1426.08084869 -1146.99843597 1426.08084869 -1147.99843597 1423.08084869 C-1148.67519379 1423.00866119 -1149.3519516 1422.93647369 -1150.04921722 1422.86209869 C-1153.93030863 1421.83399501 -1156.91122518 1419.81835278 -1160.18593597 1417.58084869 C-1160.84649994 1417.135961 -1161.5070639 1416.6910733 -1162.18764496 1416.23270416 C-1167.13009505 1412.83668698 -1171.57312841 1409.08249597 -1175.93593597 1404.96366119 C-1178.05896781 1402.92433945 -1178.05896781 1402.92433945 -1181.06093597 1401.08084869 C-1184.7459853 1398.57187894 -1187.61745637 1395.54445421 -1190.72109222 1392.35819244 C-1192.68390169 1390.39538298 -1194.68126787 1388.60631005 -1196.81093597 1386.83084869 C-1205.00702613 1379.75907309 -1212.12680283 1371.43019142 -1218.74843597 1362.89334869 C-1219.17882172 1362.34082428 -1219.60920746 1361.78829987 -1220.05263519 1361.21903229 C-1222.99843597 1357.33476787 -1222.99843597 1357.33476787 -1222.99843597 1355.08084869 C-1223.98843597 1354.75084869 -1224.97843597 1354.42084869 -1225.99843597 1354.08084869 C-1227.22524261 1352.54618073 -1227.22524261 1352.54618073 -1228.40859222 1350.58866119 C-1229.05731293 1349.53098541 -1229.05731293 1349.53098541 -1229.7191391 1348.45194244 C-1230.38332855 1347.34012604 -1230.38332855 1347.34012604 -1231.06093597 1346.20584869 C-1231.94748446 1344.75001583 -1232.83419704 1343.29428288 -1233.72109222 1341.83866119 C-1234.11046967 1341.19042389 -1234.49984711 1340.54218658 -1234.90102386 1339.87430573 C-1235.89394514 1338.25161392 -1236.94318954 1336.66371834 -1237.99843597 1335.08084869 C-1237.99843597 1334.09084869 -1237.99843597 1333.10084869 -1237.99843597 1332.08084869 C-1238.98843597 1331.75084869 -1239.97843597 1331.42084869 -1240.99843597 1331.08084869 C-1242.43934868 1328.59549619 -1243.71055774 1326.1694022 -1244.93593597 1323.58084869 C-1245.28785004 1322.85486481 -1245.6397641 1322.12888092 -1246.00234222 1321.38089752 C-1247.01263706 1319.28617279 -1248.00776653 1317.18491153 -1248.99843597 1315.08084869 C-1249.69646332 1313.61711823 -1249.69646332 1313.61711823 -1250.40859222 1312.12381744 C-1252.99843597 1306.52641321 -1252.99843597 1306.52641321 -1252.99843597 1303.08084869 C-1253.65843597 1303.08084869 -1254.31843597 1303.08084869 -1254.99843597 1303.08084869 C-1259.76567807 1292.86532992 -1262.87244333 1282.16306547 -1266.02626801 1271.36673737 C-1266.72745524 1268.99675268 -1267.44982696 1266.63299956 -1268.18544769 1264.27347565 C-1271.61013858 1253.19200405 -1273.97845819 1242.03417592 -1276.12343597 1230.64334869 C-1276.45996842 1228.89776951 -1276.79720646 1227.1523262 -1277.13515472 1225.40702057 C-1278.74782188 1217.02999624 -1280.28935728 1208.63972038 -1281.74062347 1200.23319244 C-1281.8688147 1199.51265182 -1281.99700592 1198.79211121 -1282.12908173 1198.04973602 C-1282.87221315 1193.64479804 -1283.11529319 1189.52614083 -1282.99843597 1185.08084869 C-1283.65843597 1185.08084869 -1284.31843597 1185.08084869 -1284.99843597 1185.08084869 C-1288.8923231 1156.75301756 -1292.43781249 1128.41677246 -1295.23814392 1099.96072769 C-1295.4348395 1097.96696291 -1295.63401974 1095.97344377 -1295.83321381 1093.97992706 C-1296.2068925 1090.21997336 -1296.57137062 1086.45925894 -1296.93202972 1082.69803619 C-1297.04106125 1081.59694016 -1297.15009277 1080.49584412 -1297.26242828 1079.36138153 C-1297.92617865 1072.24798333 -1298.12119457 1065.22363042 -1297.99843597 1058.08084869 C-1298.65843597 1058.08084869 -1299.31843597 1058.08084869 -1299.99843597 1058.08084869 C-1304.612375 996.09995079 -1308.18476117 934.07927512 -1310.18593597 871.95584869 C-1310.2228656 870.81065765 -1310.25979523 869.66546661 -1310.29784393 868.48557281 C-1310.54123784 860.76462009 -1310.75181195 853.04306573 -1310.94294357 845.32064819 C-1310.98188237 843.74898968 -1311.02118779 842.17734022 -1311.06076431 840.60569763 C-1311.81391484 810.63720438 -1312.2019836 780.68367073 -1312.18593597 750.70584869 C-1312.18581638 749.70141472 -1312.18569679 748.69698074 -1312.18557358 747.66210938 C-1312.17922682 705.11228934 -1311.44003 662.60562781 -1309.99843597 620.08084869 C-1309.95853672 618.9023724 -1309.95853672 618.9023724 -1309.91783142 617.7000885 C-1307.88965679 558.10238267 -1304.85648738 498.5192196 -1299.99843597 439.08084869 C-1299.33843597 439.08084869 -1298.67843597 439.08084869 -1297.99843597 439.08084869 C-1298.01121582 438.29024048 -1298.02399567 437.49963226 -1298.03716278 436.68506622 C-1298.10870684 428.8281946 -1297.69650032 421.15123406 -1296.89687347 413.33866119 C-1296.72137718 411.55776848 -1296.72137718 411.55776848 -1296.54233551 409.74089813 C-1296.16026372 405.8950795 -1295.76760124 402.05044532 -1295.37343597 398.20584869 C-1295.23914347 396.87787905 -1295.10508112 395.54988612 -1294.97124481 394.22187042 C-1292.20054589 366.77583325 -1288.9372048 339.38527201 -1284.99843597 312.08084869 C-1284.33843597 312.08084869 -1283.67843597 312.08084869 -1282.99843597 312.08084869 C-1282.96395355 311.36211578 -1282.92947113 310.64338287 -1282.89394379 309.90287018 C-1282.27646159 299.8296041 -1280.57301038 290.05650046 -1278.74843597 280.14334869 C-1278.51566452 278.86015244 -1278.51566452 278.86015244 -1278.27819061 277.55103302 C-1275.87517886 264.30588508 -1273.21867278 251.15471334 -1269.99843597 238.08084869 C-1269.33843597 238.08084869 -1268.67843597 238.08084869 -1267.99843597 238.08084869 C-1267.88886566 236.79307526 -1267.77929535 235.50530182 -1267.66640472 234.17850494 C-1267.09691514 229.09086589 -1265.83145447 224.39519242 -1264.31093597 219.51834869 C-1264.04909515 218.66079987 -1263.78725433 217.80325104 -1263.51747894 216.91971588 C-1261.00986134 208.84575473 -1258.09569892 200.94482128 -1254.99843597 193.08084869 C-1254.33843597 193.08084869 -1253.67843597 193.08084869 -1252.99843597 193.08084869 C-1252.91206879 192.42858307 -1252.8257016 191.77631744 -1252.73671722 191.10428619 C-1251.74187773 187.0301816 -1250.00064475 183.47359249 -1248.18593597 179.70584869 C-1247.67063324 178.61143463 -1247.67063324 178.61143463 -1247.14492035 177.49491119 C-1240.99945201 164.58135671 -1240.99945201 164.58135671 -1237.99843597 163.08084869 C-1237.50343597 162.02897369 -1237.00843597 160.97709869 -1236.49843597 159.89334869 C-1232.02530448 150.57851308 -1225.03829571 142.22460054 -1218.64296722 134.16678619 C-1217.49399651 132.70942192 -1216.3680582 131.23373429 -1215.26015472 129.74491119 C-1212.06276779 125.47700225 -1208.89241311 121.94845944 -1204.74452972 118.60428619 C-1202.81179586 116.91800833 -1201.21567463 115.10201894 -1199.56093597 113.14334869 C-1196.57721646 109.62993515 -1193.35780336 106.65177191 -1189.84609222 103.67459869 C-1188.27190359 102.31673619 -1186.78094625 100.86335897 -1185.31093597 99.39334869 C-1182.99413096 97.07654368 -1180.56480828 95.1147945 -1177.99843597 93.08084869 C-1177.32425629 92.51366119 -1176.6500766 91.94647369 -1175.95546722 91.36209869 C-1170.39613668 86.74451267 -1164.56590395 82.65821138 -1158.56093597 78.64334869 C-1157.76727631 78.11096588 -1156.97361664 77.57858307 -1156.15590668 77.03006744 C-1155.40398041 76.53248932 -1154.65205414 76.03491119 -1153.87734222 75.52225494 C-1153.20259857 75.07567535 -1152.52785492 74.62909576 -1151.83266449 74.16898346 C-1149.99843597 73.08084869 -1149.99843597 73.08084869 -1146.99843597 72.08084869 C-1145.99008638 71.08926859 -1144.99049984 70.08872234 -1143.99843597 69.08084869 C-1141.45159774 67.70119327 -1138.91681969 66.39962872 -1136.31093597 65.14334869 C-1135.62837738 64.80883698 -1134.94581879 64.47432526 -1134.2425766 64.12967682 C-1132.86304743 63.45359029 -1131.48168808 62.78122551 -1130.09853363 62.11258698 C-1128.65719476 61.40448443 -1127.22486965 60.67782425 -1125.80068207 59.93582916 C-1125.09637054 59.56989655 -1124.39205902 59.20396393 -1123.66640472 58.82694244 C-1123.03371674 58.49235016 -1122.40102875 58.15775787 -1121.7491684 57.81302643 C-1119.99843597 57.08084869 -1119.99843597 57.08084869 -1116.99843597 57.08084869 C-1116.99843597 56.42084869 -1116.99843597 55.76084869 -1116.99843597 55.08084869 C-1080.78102657 41.75420712 -1080.78102657 41.75420712 -1072.99843597 42.08084869 C-1072.99843597 41.42084869 -1072.99843597 40.76084869 -1072.99843597 40.08084869 C-1048.48742609 34.91918021 -1023.83162698 31.30718882 -998.99843597 28.08084869 C-998.25729553 27.98414383 -997.51615509 27.88743896 -996.75255585 27.78780365 C-993.14220864 27.32484996 -989.64036828 26.9614435 -985.99843597 27.01834869 C-985.23531097 27.02737213 -984.47218597 27.03639557 -983.68593597 27.04569244 C-983.12906097 27.05729401 -982.57218597 27.06889557 -981.99843597 27.08084869 C-981.99843597 26.42084869 -981.99843597 25.76084869 -981.99843597 25.08084869 C-948.11152277 21.763546 -914.21861795 18.72394591 -880.24843597 16.39334869 C-879.49894054 16.34185291 -878.74944511 16.29035713 -877.9772377 16.23730087 C-854.4183896 14.6225401 -830.8503472 13.19032489 -807.26699066 11.9805069 C-805.70968483 11.89839714 -805.70968483 11.89839714 -804.12091827 11.8146286 C-802.19901998 11.71364279 -800.27691348 11.61651697 -798.35459137 11.52394867 C-794.35144144 11.69178541 -794.35144144 11.69178541 -790.99843597 10.08084869 C-788.67635982 9.8812897 -786.37858378 9.74493507 -784.05141449 9.64774323 C-782.94809674 9.59613336 -782.94809674 9.59613336 -781.82248974 9.54348087 C-779.34096615 9.42877825 -776.85918839 9.32114224 -774.37734222 9.21366119 C-772.61119483 9.13395365 -770.84506147 9.05393456 -769.07894135 8.97362518 C-764.25559753 8.75606738 -759.43196895 8.54561885 -754.60821152 8.33745193 C-751.54638252 8.20522017 -748.48460955 8.07174769 -745.42284393 7.93805695 C-659.00114628 4.17427645 -572.54056469 1.87464376 -486.05689716 0.1226368 C-484.0209542 0.08130583 -481.98501704 0.03969965 -479.94908142 -0.00199127 C-388.68626652 -1.8688973 -297.42566468 -2.26602126 0 0 Z " fill="#FF0000" transform="translate(1312.998435974121,2.9191513061523438)"/>
<path d="M0 0 C3.72609338 1.49043735 6.96247987 3.00036112 10.4375 4.9375 C14.25503019 7.04745925 18.07812575 9.09206118 22 11 C22 11.66 22 12.32 22 13 C22.68449219 13.2578125 23.36898437 13.515625 24.07421875 13.78125 C27.42232665 15.17592245 30.61527473 16.79540316 33.8125 18.5 C34.78449341 19.01687378 34.78449341 19.01687378 35.77612305 19.54418945 C41.4638893 22.61753348 46.91219962 26.02028448 52.36181641 29.49365234 C56.63802447 32.20209235 60.9536928 34.5621702 65.52734375 36.73828125 C69.69001333 38.86236067 73.59473565 41.40276614 77.5546875 43.87890625 C83.2669674 47.42814054 89.14665131 50.69098103 95 54 C99.34928985 56.47288884 103.68170769 58.97333961 108 61.5 C115.81948257 66.15662266 115.81948257 66.15662266 123.875 70.375 C126.44449115 71.7111354 128.63665383 73.10176226 131 74.75 C134.8372952 77.3686947 138.82595426 79.47949246 143 81.5 C146.93864543 83.40936311 150.72363795 85.35234357 154.3125 87.875 C161.09258612 92.6365872 168.65339671 96.20439555 176 100 C176 100.66 176 101.32 176 102 C176.67933594 102.25394531 177.35867188 102.50789062 178.05859375 102.76953125 C181.50583801 104.21160554 184.77641332 105.9175163 188.0625 107.6875 C188.72080811 108.04054199 189.37911621 108.39358398 190.05737305 108.75732422 C197.90050366 112.98922241 205.5569909 117.52321605 213.1875 122.125 C216.11791202 123.89064257 219.06220635 125.60616095 222.0625 127.25 C227.31448229 130.13252669 232.45179243 133.20622408 237.60595703 136.25878906 C242.67117141 139.2478382 247.78826518 142.10864614 252.99609375 144.84375 C255 146 255 146 257 148 C259.06874034 148.6425235 259.06874034 148.6425235 261 149 C261 149.66 261 150.32 261 151 C261.99966797 151.37125 261.99966797 151.37125 263.01953125 151.75 C266.6979431 153.29271532 270.17327871 155.11847706 273.6875 157 C274.36361328 157.35578125 275.03972656 157.7115625 275.73632812 158.078125 C278.46294787 159.5323222 280.8022874 160.8022874 283 163 C285.06874034 163.6425235 285.06874034 163.6425235 287 164 C287 164.66 287 165.32 287 166 C287.70125 166.27070312 288.4025 166.54140625 289.125 166.8203125 C292.14872826 168.06102709 295.06782288 169.43135157 298 170.875 C299.010625 171.36742187 300.02125 171.85984375 301.0625 172.3671875 C304.00306836 174.00170555 306.39325718 175.88462404 309 178 C310.68332735 179.001606 312.39310303 179.95993802 314.125 180.875 C315.07761719 181.38417969 316.03023437 181.89335938 317.01171875 182.41796875 C318.49091797 183.20107422 318.49091797 183.20107422 320 184 C321.98127655 185.05856043 323.96052014 186.12093657 325.9375 187.1875 C326.81277344 187.65542969 327.68804688 188.12335938 328.58984375 188.60546875 C331 190 331 190 333.17578125 191.6328125 C335.1278495 193.09581869 336.61930569 193.57487602 339 194 C339 194.66 339 195.32 339 196 C340.03447266 196.38865234 340.03447266 196.38865234 341.08984375 196.78515625 C344.36587997 198.15273647 347.43739899 199.75363908 350.5625 201.4375 C352.23505859 202.33275391 352.23505859 202.33275391 353.94140625 203.24609375 C356.47169218 204.69704954 358.6863553 206.24266987 361 208 C363.14733927 208.70514846 363.14733927 208.70514846 365 209 C365 209.66 365 210.32 365 211 C365.87785156 211.26683594 366.75570313 211.53367187 367.66015625 211.80859375 C370.87919683 212.95690647 373.51317919 214.30790751 376.4375 216.0625 C377.47648437 216.68125 378.51546875 217.3 379.5859375 217.9375 C380.71257812 218.618125 381.83921875 219.29875 383 220 C385.52013428 221.52199497 388.0409216 223.04289871 390.5625 224.5625 C391.19881348 224.94647949 391.83512695 225.33045898 392.49072266 225.72607422 C397.08623308 228.48621502 401.7527531 231.08212263 406.4765625 233.6171875 C409.74745946 235.40959853 412.9204925 237.3453565 416.10546875 239.28515625 C420.56486968 241.92709553 425.10195156 244.43092312 429.64331055 246.92895508 C434.78382859 249.78382859 434.78382859 249.78382859 437 252 C438.98356483 252.71408334 440.98315437 253.38617742 443 254 C443 254.66 443 255.32 443 256 C444.03060547 256.38671875 444.03060547 256.38671875 445.08203125 256.78125 C448.4026339 258.16816838 451.51885699 259.79464139 454.6875 261.5 C455.82574219 262.1084375 456.96398438 262.716875 458.13671875 263.34375 C461 265 461 265 463 267 C465.06874034 267.6425235 465.06874034 267.6425235 467 268 C467 268.66 467 269.32 467 270 C467.84820313 270.25007813 468.69640625 270.50015625 469.5703125 270.7578125 C473.26579239 272.09626649 476.51439793 273.87325409 479.875 275.875 C484.83634553 278.77447062 489.81848159 281.51287117 495 284 C495 284.66 495 285.32 495 286 C496.03060547 286.38671875 496.03060547 286.38671875 497.08203125 286.78125 C500.4026339 288.16816838 503.51885699 289.79464139 506.6875 291.5 C507.82574219 292.1084375 508.96398438 292.716875 510.13671875 293.34375 C513 295 513 295 515 297 C516.66441048 297.67227968 518.33157635 298.3377427 520 299 C522.31673045 300.24051879 524.60008638 301.50033277 526.875 302.8125 C527.49487793 303.16707275 528.11475586 303.52164551 528.75341797 303.88696289 C531.99481733 305.76264242 535.11969853 307.70312369 538.125 309.9375 C540.71500412 311.79554644 542.00645774 312.38972851 545 313 C545 313.66 545 314.32 545 315 C545.86625 315.2475 546.7325 315.495 547.625 315.75 C551.18302254 317.06778613 553.9226155 318.80186822 557 321 C552.36998597 325.05732886 547.15701369 327.88448283 541.8125 330.875 C535.57984542 334.38395312 529.39066606 337.94223244 523.26708984 341.63867188 C520.20648019 343.47648788 517.1103615 345.2482876 514 347 C513.16388184 347.47147461 512.32776367 347.94294922 511.46630859 348.42871094 C503.56601384 352.88123253 503.56601384 352.88123253 499.71289062 355.046875 C494.2163186 358.14619953 488.77062555 361.31189427 483.36987305 364.57519531 C479.62728564 366.82529731 475.84548385 369.006232 472.0625 371.1875 C470.41535926 372.1393137 468.76822401 373.09113691 467.12109375 374.04296875 C466.28304199 374.52685059 465.44499023 375.01073242 464.58154297 375.50927734 C460.26140657 378.00395796 455.94307009 380.50174503 451.625 383 C450.83488525 383.45656982 450.04477051 383.91313965 449.23071289 384.38354492 C448.48684326 384.8138501 447.74297363 385.24415527 446.9765625 385.6875 C446.32768066 386.06261719 445.67879883 386.43773437 445.01025391 386.82421875 C443.52028629 387.69568876 442.03726802 388.57906375 440.55810547 389.46875 C438.08661329 390.94815437 435.5967937 392.38723747 433.09375 393.8125 C432.18496094 394.33070313 431.27617188 394.84890625 430.33984375 395.3828125 C428.44661458 396.4609375 426.55338542 397.5390625 424.66015625 398.6171875 C423.75136719 399.13539063 422.84257813 399.65359375 421.90625 400.1875 C421.08447266 400.65542969 420.26269531 401.12335938 419.41601562 401.60546875 C417.76905696 402.55609808 416.13062803 403.52162318 414.5 404.5 C412.0488078 405.97071532 409.57778251 407.39806267 407.09375 408.8125 C406.18496094 409.33070313 405.27617188 409.84890625 404.33984375 410.3828125 C402.44661458 411.4609375 400.55338542 412.5390625 398.66015625 413.6171875 C397.75136719 414.13539063 396.84257813 414.65359375 395.90625 415.1875 C395.08447266 415.65542969 394.26269531 416.12335938 393.41601562 416.60546875 C391.75114925 417.56643447 390.09557689 418.54362292 388.44799805 419.53393555 C386.29439413 420.82369236 384.12545334 422.06071206 381.92578125 423.26953125 C381.17490234 423.68396484 380.42402344 424.09839844 379.65039062 424.52539062 C378.11173605 425.37248617 376.57268389 426.21886 375.03320312 427.06445312 C371.06024232 429.25887999 367.13062068 431.50375852 363.24609375 433.8515625 C357.73140805 437.18405171 352.13605092 440.368015 346.53323364 443.54946899 C332.7727841 451.36659498 319.09037578 459.31323661 305.53686523 467.48510742 C303.07158219 468.95725459 300.58893567 470.39171192 298.09375 471.8125 C297.18496094 472.33070313 296.27617188 472.84890625 295.33984375 473.3828125 C293.44661458 474.4609375 291.55338542 475.5390625 289.66015625 476.6171875 C288.75136719 477.13539063 287.84257813 477.65359375 286.90625 478.1875 C286.08447266 478.65542969 285.26269531 479.12335938 284.41601562 479.60546875 C281.92655913 481.04239028 279.46288643 482.51809376 277 484 C270.56401352 487.72651563 264.11547351 491.42031182 257.5625 494.9375 C252.41022001 497.7235477 247.39603376 500.71707476 242.38891602 503.75366211 C239.39827534 505.56691694 236.39902027 507.35580427 233.359375 509.0859375 C230.548066 510.68772984 227.77301925 512.33356414 225 514 C218.56401352 517.72651563 212.11547351 521.42031182 205.5625 524.9375 C200.52406329 527.66077875 195.62315423 530.58675927 190.74047852 533.57788086 C187.12467955 535.77865032 183.46070932 537.85523436 179.73828125 539.87109375 C173.9858442 542.9872024 168.33074585 546.25357861 162.6875 549.5625 C161.6651123 550.16094727 160.64272461 550.75939453 159.58935547 551.37597656 C157.46284144 552.62164152 155.33686803 553.86822984 153.21142578 555.11572266 C150.01642837 556.99036079 146.81878003 558.86042194 143.62109375 560.73046875 C141.622191 561.90329679 139.62348507 563.07646037 137.625 564.25 C136.68615967 564.79857666 135.74731934 565.34715332 134.7800293 565.91235352 C133.48512573 566.6750354 133.48512573 566.6750354 132.1640625 567.453125 C131.02638428 568.12069824 131.02638428 568.12069824 129.86572266 568.80175781 C127.86467231 569.9934235 127.86467231 569.9934235 126 572 C124.35018206 572.7022732 122.69921044 573.40200504 121.04150391 574.08544922 C117.25930211 575.77979602 113.7436679 577.94360378 110.1875 580.0625 C109.42501953 580.50916016 108.66253906 580.95582031 107.87695312 581.41601562 C103.68375625 583.86880493 103.68375625 583.86880493 100 587 C98.31947765 587.72822635 96.63731437 588.45307578 94.94433594 589.15185547 C91.71133292 590.56213328 88.68366438 592.31232004 85.625 594.0625 C84.94163574 594.45026611 84.25827148 594.83803223 83.55419922 595.23754883 C76.28367614 599.37855714 69.07074237 603.61802914 61.87548828 607.88818359 C60.17842795 608.89422535 58.47807485 609.89470751 56.77734375 610.89453125 C55.88144531 611.42433594 54.98554687 611.95414063 54.0625 612.5 C53.31097656 612.9434375 52.55945313 613.386875 51.78515625 613.84375 C49.8549964 615.00561319 49.8549964 615.00561319 48 617 C46.31657869 617.72975899 44.63152043 618.45615772 42.93554688 619.15625 C39.75143445 620.54427883 36.75994934 622.27557392 33.75 624 C33.07759277 624.3808374 32.40518555 624.7616748 31.71240234 625.15405273 C27.72613637 627.41887333 23.76161124 629.71949821 19.8046875 632.03515625 C18.94262695 632.53853516 18.08056641 633.04191406 17.19238281 633.56054688 C15.49914785 634.55111187 13.80832741 635.54581734 12.12011719 636.54492188 C11.35086914 636.99544922 10.58162109 637.44597656 9.7890625 637.91015625 C9.10537598 638.31371338 8.42168945 638.71727051 7.71728516 639.13305664 C6 640 6 640 4 640 C4 640.66 4 641.32 4 642 C2.68 642.33 1.36 642.66 0 643 C0 430.81 0 218.62 0 0 Z " fill="#FFFEFE" transform="translate(858,430)"/>
</svg>
